<?xml version="1.0" encoding="UTF-8"?>
<!DOCTYPE svg PUBLIC "-//W3C//DTD SVG 1.1//EN" "http://www.w3.org/Graphics/SVG/1.1/DTD/svg11.dtd">
<!-- Creator: CorelDRAW -->
<svg xmlns="http://www.w3.org/2000/svg" xml:space="preserve" width="1.70666in" height="1.70666in" version="1.1" style="shape-rendering:geometricPrecision; text-rendering:geometricPrecision; image-rendering:optimizeQuality; fill-rule:evenodd; clip-rule:evenodd"
viewBox="0 0 1706.66 1706.66"
 xmlns:xlink="http://www.w3.org/1999/xlink"
 xmlns:xodm="http://www.corel.com/coreldraw/odm/2003">
 <defs>
  <style type="text/css">
   <![CDATA[
    .fil0 {fill:black}
   ]]>
  </style>
 </defs>
 <g id="Layer_x0020_1">
  <metadata id="CorelCorpID_0Corel-Layer"/>
  <path class="fil0" d="M1347.24 1158.61c-198.17,0 -359.39,-161.21 -359.39,-359.38 0,-198.17 161.22,-359.38 359.39,-359.38 198.17,0 359.38,161.21 359.38,359.36 0,198.17 -161.21,359.39 -359.38,359.39zm0 -678.77c-176.11,0 -319.38,143.26 -319.38,319.38 0,176.1 143.27,319.38 319.38,319.38 176.11,0 319.38,-143.28 319.38,-319.38 0,-176.11 -143.27,-319.38 -319.38,-319.38z"/>
  <path class="fil0" d="M1288.56 973.69c-5.11,0 -10.24,-1.96 -14.15,-5.86l-143.13 -143.11c-7.81,-7.81 -7.81,-20.46 0,-28.27l48.45 -48.45c7.82,-7.82 20.49,-7.8 28.3,0l80.52 80.51 197.88 -197.87c7.82,-7.82 20.48,-7.82 28.29,0l48.45 48.45c7.82,7.8 7.82,20.47 0,28.28l-260.48 260.48c-3.9,3.9 -9.02,5.86 -14.13,5.86zm-114.85 -163.11l114.85 114.83 232.2 -232.2 -20.18 -20.18 -197.88 197.89c-7.82,7.82 -20.49,7.82 -28.29,0l-80.53 -80.51 -20.19 20.17z"/>
  <path class="fil0" d="M1000.98 1674.88c-13.52,0 -23.46,-13.61 -18.86,-26.67 125.52,-355.19 -180.68,-562.66 -241.38,-599.6 -60.69,36.94 -366.92,244.41 -241.37,599.6 6.61,18.71 -15.67,34.65 -31.25,22.36 -338,-266.51 -333.24,-618.49 -287.87,-898.76 -257.12,-171.23 -239.31,-568.5 52.07,-701.47 147.54,-67.35 318.62,-45.19 435.78,56.47 55.4,48.07 89.89,48.05 145.26,0.01 259.34,-224.98 708.76,-29.42 665.49,354.12 -2.95,26.19 -42.69,21.67 -39.75,-4.48 38.98,-346.83 -367.31,-520.91 -599.53,-319.39 -70.66,61.31 -127.02,61.29 -197.69,0 -217.01,-188.23 -601.83,-51.17 -601.83,278.15 0,127.02 64.53,242.86 172.61,309.91 6.9,4.28 10.53,12.3 9.2,20.29 -43.01,256.76 -54.53,579 220.89,831.2 -85.9,-376.52 284.35,-586.48 288.31,-588.65 6.03,-3.33 13.32,-3.33 19.36,0 3.96,2.18 374.21,212.2 288.28,588.78 137.95,-125.8 215.83,-278.29 237.51,-464.29 3.04,-25.94 42.8,-21.69 39.75,4.64 -25.48,218.54 -124.46,393.06 -302.59,533.51 -3.62,2.85 -8.01,4.28 -12.38,4.28z"/>
  <path class="fil0" d="M740.76 438.48c-56.39,0 -113.08,-29.36 -174.33,-82.48 -19.9,-17.26 6.35,-47.47 26.22,-30.22 111.21,96.54 185.25,96.08 296.23,0 19.9,-17.23 46.09,12.95 26.19,30.22 -61.19,53.1 -118,82.48 -174.31,82.48z"/>
 </g>
</svg>
