<?xml version="1.0" encoding="UTF-8"?>
<!DOCTYPE svg PUBLIC "-//W3C//DTD SVG 1.1//EN" "http://www.w3.org/Graphics/SVG/1.1/DTD/svg11.dtd">
<!-- Creator: CorelDRAW -->
<svg xmlns="http://www.w3.org/2000/svg" xml:space="preserve" width="1.70666in" height="1.70666in" version="1.1" style="shape-rendering:geometricPrecision; text-rendering:geometricPrecision; image-rendering:optimizeQuality; fill-rule:evenodd; clip-rule:evenodd"
viewBox="0 0 1707 1707"
 xmlns:xlink="http://www.w3.org/1999/xlink">
 <defs>
  <style type="text/css">
   <![CDATA[
    .fil0 {fill:url(#id0)}
   ]]>
  </style>
  <linearGradient id="id0" gradientUnits="userSpaceOnUse" x1="237.035" y1="853.331" x2="1469.63" y2="853.331">
   <stop offset="0" style="stop-opacity:1; stop-color:#336666"/>
   <stop offset="1" style="stop-opacity:1; stop-color:#003333"/>
  </linearGradient>
 </defs>
 <g id="Layer_x0020_1">
  <metadata id="CorelCorpID_0Corel-Layer"/>
  <path class="fil0" d="M953 838c-8,0 -16,-5 -20,-12l-54 -103c-14,56 -5,116 15,173 27,76 25,85 35,148 11,67 33,111 45,121 34,-46 5,-213 101,-214 94,0 66,169 100,214 25,-22 42,-101 51,-161 11,-83 41,-115 49,-204 9,-97 -33,-186 -146,-133 70,37 86,126 43,126 -12,0 -22,-10 -22,-23 0,-68 -77,-71 -89,-79 -25,-17 -49,-29 -71,-35l32 67c3,6 3,14 -1,21l-48 82c-4,7 -11,12 -20,12zm400 869l-1093 0c-13,0 -23,-11 -23,-23l0 -502c0,-31 44,-23 64,-23 -42,-190 61,-324 238,-215 177,-109 280,25 238,215l110 0c29,0 32,54 36,81 8,60 25,139 51,161 34,-46 4,-212 101,-214 24,0 66,15 75,109 8,75 20,99 25,105 25,-22 42,-101 51,-161 3,-27 7,-81 35,-81l92 0c13,0 23,10 23,23l0 502c0,12 -10,23 -23,23zm-1001 -532c15,45 28,78 36,128 8,60 25,139 50,161 5,-7 17,-30 25,-105 7,-75 33,-111 82,-109 15,1 29,10 39,21l0 0c42,46 28,156 55,193 6,-5 21,-33 29,-54l0 0 1 -4 3 -10 11 -44c12,-67 3,-62 38,-161 39,-115 26,-297 -127,-225 70,37 86,126 43,126 -12,0 -23,-10 -23,-23 0,-67 -74,-70 -88,-79 -169,-113 -218,37 -174,185zm-70 486l1049 0 0 -456 -53 0c-7,25 -9,51 -14,83 -9,59 -39,160 -90,160 -84,0 -50,-215 -100,-215 -48,0 -16,215 -99,215 -64,0 -88,-141 -97,-202 -3,-18 -4,-28 -8,-41l-106 0c-29,85 -23,74 -35,146 -10,59 -39,160 -91,160 -81,0 -50,-214 -100,-215 -47,-1 -16,215 -99,215 -49,0 -68,-86 -75,-97 -8,-13 -18,-81 -21,-105 -5,-32 -11,-51 -29,-104l-32 0 0 456 0 0m569 -991l-73 -138c-3,-4 -3,-9 -3,-14l76 -499c2,-11 11,-19 22,-19l75 0c14,0 25,12 23,26l-64 458 59 121c33,3 69,16 108,40 69,-42 139,-58 192,-14l71 -146 -143 -455c-4,-15 7,-30 22,-30l75 0c10,0 19,7 22,16l156 499c1,6 1,12 -2,17l-147 278c-3,33 -11,68 -23,102 -26,73 -23,78 -33,139 -9,60 -39,163 -91,161 -82,-3 -51,-215 -99,-215 -48,0 -16,215 -99,215 -64,0 -88,-141 -97,-202 -5,-36 -12,-54 -30,-108 -29,-86 -27,-175 3,-232zm447 1c8,15 13,32 17,50l107 -202 -148 -474 -27 0 136 435c1,6 1,12 -2,17l-83 174zm-740 582c1,0 1,1 2,1m261 -736l133 250 22 -37 -113 -234c-2,-4 -2,-8 -2,-13l61 -439 -29 0 -72 473z"/>
 </g>
</svg>
