<?xml version="1.0" encoding="UTF-8" standalone="no"?> <svg width="64" height="64" viewBox="0 0 64 64" fill="none" xmlns="http://www.w3.org/2000/svg">
<path d="M59.707 4.707L58.293 3.293L44.541 17.045C44.3535 17.081 44.1773 17.1612 44.027 17.279L40.572 20.158L42.842 22.428L45.721 18.973C45.8388 18.8227 45.919 18.6465 45.955 18.459L59.707 4.707Z" fill="black"/>
<path d="M61 18C61 16.343 58 10 58 10C58 10 55 16.343 55 18C55 18.7956 55.3161 19.5587 55.8787 20.1213C56.4413 20.6839 57.2044 21 58 21C58.7956 21 59.5587 20.6839 60.1213 20.1213C60.6839 19.5587 61 18.7956 61 18Z" fill="black"/>
<path d="M13.9989 45.4142L9.41333 49.9998L12.9991 53.5855L17.5847 48.9999L13.9989 45.4142Z" fill="black"/>
<path d="M5.00032 48.4137L3.41428 49.9997L13.0005 59.5859L14.5866 57.9999L5.00032 48.4137Z" fill="black"/>
<path d="M13.0005 38.4139L11.4144 39.9999L23.0004 51.5859L24.5864 49.9998L13.0005 38.4139Z" fill="black"/>
<path d="M38 20.414C37.7287 20.1606 37.3712 20.0196 37 20.0196C36.6287 20.0196 36.2713 20.1606 36 20.414L35.414 21L38.707 24.293L37.293 25.707L34 22.414L32.414 24L35.707 27.293L34.293 28.707L31 25.414L29.414 27L34.707 32.293L33.293 33.707L28 28.414L26.414 30L29.707 33.293L28.293 34.707L25 31.414L23.414 33L26.707 36.293L25.293 37.707L22 34.414L20.414 36L25.707 41.293L24.293 42.707L19 37.414L16.914 39.5L23.5 46.086L42.586 27C42.851 26.7347 42.9999 26.375 42.9999 26C42.9999 25.625 42.851 25.2653 42.586 25L38 20.414Z" fill="black"/>
<path d="M60 24C60 24 58 27.895 58 29C58 29.5304 58.2107 30.0391 58.5858 30.4142C58.9609 30.7893 59.4696 31 60 31C60.5304 31 61.0391 30.7893 61.4142 30.4142C61.7893 30.0391 62 29.5304 62 29C62 27.9 60 24 60 24Z" fill="black"/>
</svg>
